<svg width="24" height="24" viewBox="0 0 24 24" fill="none" xmlns="http://www.w3.org/2000/svg">
<path d="M12 8.50851L12 6.50851M17.4857 18.5085L6.51429 18.5085C5.75687 18.5085 5.14286 17.8689 5.14286 17.0799L5.14286 9.93708C5.14286 9.14811 5.75687 8.50851 6.51429 8.50851L17.4857 8.50851C18.2431 8.50851 18.8571 9.14811 18.8571 9.93709L18.8571 17.0799C18.8571 17.8689 18.2431 18.5085 17.4857 18.5085Z" stroke="#F5F6FA" stroke-linecap="round" stroke-linejoin="round"/>
<path d="M13.2143 4.79423C13.2143 5.46486 12.6706 6.00851 12 6.00851C11.3294 6.00851 10.7857 5.46486 10.7857 4.79423C10.7857 4.1236 11.3294 3.57994 12 3.57994C12.6706 3.57994 13.2143 4.1236 13.2143 4.79423Z" stroke="#F5F6FA"/>
<line x1="9.92857" y1="15.4371" x2="14.0714" y2="15.4371" stroke="#F5F6FA" stroke-linecap="round"/>
<line x1="3.07143" y1="12.1514" x2="3.07143" y2="14.5799" stroke="#F5F6FA" stroke-linecap="round"/>
<line x1="21.0714" y1="12.1514" x2="21.0714" y2="14.5799" stroke="#F5F6FA" stroke-linecap="round"/>
<path d="M9.42857 12.5085C9.42857 12.9819 9.04481 13.3657 8.57142 13.3657C8.09804 13.3657 7.71428 12.9819 7.71428 12.5085C7.71428 12.0351 8.09804 11.6514 8.57142 11.6514C9.04481 11.6514 9.42857 12.0351 9.42857 12.5085Z" fill="#F5F6FA"/>
<path d="M16.2857 12.5085C16.2857 12.9819 15.902 13.3657 15.4286 13.3657C14.9552 13.3657 14.5714 12.9819 14.5714 12.5085C14.5714 12.0351 14.9552 11.6514 15.4286 11.6514C15.902 11.6514 16.2857 12.0351 16.2857 12.5085Z" fill="#F5F6FA"/>
</svg>
