<svg width="24" height="24" viewBox="0 0 24 24" fill="none" xmlns="http://www.w3.org/2000/svg">
<path d="M12 8.50857L12 6.50858M17.4857 18.5086L6.51432 18.5086C5.7569 18.5086 5.14289 17.869 5.14289 17.08L5.14289 9.93715C5.14289 9.14817 5.7569 8.50857 6.51432 8.50857L17.4857 8.50858C18.2432 8.50858 18.8572 9.14817 18.8572 9.93715L18.8572 17.08C18.8572 17.869 18.2432 18.5086 17.4857 18.5086Z" stroke="#DE99FF" stroke-linecap="round" stroke-linejoin="round"/>
<path d="M13.2142 4.79427C13.2142 5.4649 12.6706 6.00856 11.9999 6.00856C11.3293 6.00856 10.7856 5.4649 10.7856 4.79427C10.7856 4.12364 11.3293 3.57999 11.9999 3.57999C12.6706 3.57999 13.2142 4.12364 13.2142 4.79427Z" stroke="#DE99FF"/>
<line x1="9.92847" y1="15.4371" x2="14.0713" y2="15.4371" stroke="#DE99FF" stroke-linecap="round"/>
<line x1="3.07153" y1="12.1514" x2="3.07153" y2="14.58" stroke="#DE99FF" stroke-linecap="round"/>
<line x1="21.0715" y1="12.1514" x2="21.0715" y2="14.58" stroke="#DE99FF" stroke-linecap="round"/>
<path d="M9.42864 12.5086C9.42864 12.982 9.04489 13.3657 8.5715 13.3657C8.09811 13.3657 7.71436 12.982 7.71436 12.5086C7.71436 12.0352 8.09811 11.6514 8.5715 11.6514C9.04489 11.6514 9.42864 12.0352 9.42864 12.5086Z" fill="#DE99FF"/>
<path d="M16.2858 12.5086C16.2858 12.982 15.9021 13.3657 15.4287 13.3657C14.9553 13.3657 14.5715 12.982 14.5715 12.5086C14.5715 12.0352 14.9553 11.6514 15.4287 11.6514C15.9021 11.6514 16.2858 12.0352 16.2858 12.5086Z" fill="#DE99FF"/>
</svg>
