<svg width="26" height="26" viewBox="0 0 26 26" fill="none" xmlns="http://www.w3.org/2000/svg">
<path d="M4.64307 7.42852H6.50021M6.50021 7.42852H21.3574M6.50021 7.42852V20.4285C6.50021 20.9211 6.69587 21.3934 7.04415 21.7417C7.39244 22.09 7.86481 22.2857 8.35735 22.2857H17.6431C18.1356 22.2857 18.608 22.09 18.9563 21.7417C19.3045 21.3934 19.5002 20.9211 19.5002 20.4285V7.42852H6.50021ZM9.28592 7.42852V5.57138C9.28592 5.07883 9.48159 4.60646 9.82987 4.25818C10.1782 3.9099 10.6505 3.71423 11.1431 3.71423H14.8574C15.3499 3.71423 15.8223 3.9099 16.1706 4.25818C16.5188 4.60646 16.7145 5.07883 16.7145 5.57138V7.42852M11.1431 12.0714V17.6428M14.8574 12.0714V17.6428" stroke="#C2A5CF" stroke-linecap="round" stroke-linejoin="round"/>
</svg>
