<svg width="18" height="18" viewBox="0 0 18 18" fill="none" xmlns="http://www.w3.org/2000/svg">
<mask id="path-1-inside-1_609_6951" fill="white">
<path d="M12.2143 2.57141H5.78571C5.07563 2.57141 4.5 3.14705 4.5 3.85713V14.1428C4.5 14.8529 5.07563 15.4286 5.78571 15.4286H12.2143C12.9244 15.4286 13.5 14.8529 13.5 14.1428V3.85713C13.5 3.14705 12.9244 2.57141 12.2143 2.57141Z"/>
</mask>
<path d="M5.78571 3.57141H12.2143V1.57141H5.78571V3.57141ZM12.2143 3.57141C12.3721 3.57141 12.5 3.69933 12.5 3.85713H14.5C14.5 2.59476 13.4767 1.57141 12.2143 1.57141V3.57141ZM12.5 3.85713V14.1428H14.5V3.85713H12.5ZM12.5 14.1428C12.5 14.3006 12.3721 14.4286 12.2143 14.4286V16.4286C13.4767 16.4286 14.5 15.4052 14.5 14.1428H12.5ZM12.2143 14.4286H5.78571V16.4286H12.2143V14.4286ZM5.78571 14.4286C5.62792 14.4286 5.5 14.3006 5.5 14.1428H3.5C3.5 15.4052 4.52335 16.4286 5.78571 16.4286V14.4286ZM5.5 14.1428V3.85713H3.5V14.1428H5.5ZM5.5 3.85713C5.5 3.69933 5.62792 3.57141 5.78571 3.57141V1.57141C4.52335 1.57141 3.5 2.59476 3.5 3.85713H5.5Z" fill="#8E929E" mask="url(#path-1-inside-1_609_6951)"/>
<path d="M9.64265 12.8571C9.64265 13.2121 9.35483 13.4999 8.99979 13.4999C8.64475 13.4999 8.35693 13.2121 8.35693 12.8571C8.35693 12.5021 8.64475 12.2142 8.99979 12.2142C9.35483 12.2142 9.64265 12.5021 9.64265 12.8571Z" fill="#8E929E"/>
</svg>
