<svg width="24" height="24" viewBox="0 0 24 24" fill="none" xmlns="http://www.w3.org/2000/svg">
<path d="M19.9156 21.3531L17.7888 19.2262M9.16982 17.5622H6.94345C6.39226 17.5622 5.7998 17.215 5.7998 16.4638V5.59294C5.7998 4.95974 6.2697 4.28571 6.94345 4.28571H12.1775M12.1775 4.28571L16.4415 8.63502M12.1775 4.28571V8.63502H16.4415M16.4415 8.63502V10.7605M18.9378 16.4638C18.9378 18.624 17.1866 20.3752 15.0264 20.3752C12.8662 20.3752 11.115 18.624 11.115 16.4638C11.115 14.3036 12.8662 12.5524 15.0264 12.5524C17.1866 12.5524 18.9378 14.3036 18.9378 16.4638Z" stroke="#425FA3" stroke-linecap="round" stroke-linejoin="round"/>
<path d="M15.5 10C11.9101 10 9 12.9101 9 16.5C9 16.8936 9.03498 17.279 9.102 17.6533H6V4.5H12.5V8.5H16.5V10.0764C16.174 10.0261 15.8401 10 15.5 10Z" fill="#425FA3"/>
</svg>
