<svg width="33" height="30" viewBox="0 0 33 30" fill="none" xmlns="http://www.w3.org/2000/svg">
<path d="M32.3536 25.6464C32.5488 25.8417 32.5488 26.1583 32.3536 26.3536L29.1716 29.5355C28.9763 29.7308 28.6597 29.7308 28.4645 29.5355C28.2692 29.3403 28.2692 29.0237 28.4645 28.8284L31.2929 26L28.4645 23.1716C28.2692 22.9763 28.2692 22.6597 28.4645 22.4645C28.6597 22.2692 28.9763 22.2692 29.1716 22.4645L32.3536 25.6464ZM0 0.5H1V1.5H0V0.5ZM3 0.5H5V1.5H3V0.5ZM7 0.5H8V1.5H7V0.5ZM8 0.5C8.37582 0.5 8.74618 0.524422 9.10955 0.571819L8.9802 1.56342C8.65961 1.5216 8.33245 1.5 8 1.5V0.5ZM11.2538 1.14518C11.9451 1.43185 12.5902 1.80699 13.1749 2.25635L12.5656 3.04926C12.0494 2.65255 11.4802 2.32164 10.8708 2.06891L11.2538 1.14518ZM14.7437 3.82506C15.193 4.40981 15.5681 5.05487 15.8548 5.74617L14.9311 6.12922C14.6784 5.51977 14.3475 4.95064 13.9507 4.43439L14.7437 3.82506ZM16.4282 7.89045C16.4756 8.25382 16.5 8.62418 16.5 9H15.5C15.5 8.66755 15.4784 8.34039 15.4366 8.0198L16.4282 7.89045ZM16.5 9V10.125H15.5V9H16.5ZM16.5 12.375V14.625H15.5V12.375H16.5ZM16.5 16.875V18H15.5V16.875H16.5ZM16.5 18C16.5 18.3325 16.5216 18.6596 16.5634 18.9802L15.5718 19.1095C15.5244 18.7462 15.5 18.3758 15.5 18H16.5ZM17.0689 20.8708C17.3216 21.4802 17.6525 22.0494 18.0493 22.5656L17.2563 23.1749C16.807 22.5902 16.4319 21.9451 16.1452 21.2538L17.0689 20.8708ZM19.4344 23.9507C19.9506 24.3475 20.5198 24.6784 21.1292 24.9311L20.7462 25.8548C20.0549 25.5681 19.4098 25.193 18.8251 24.7437L19.4344 23.9507ZM23.0198 25.4366C23.3404 25.4784 23.6675 25.5 24 25.5V26.5C23.6242 26.5 23.2538 26.4756 22.8905 26.4282L23.0198 25.4366ZM24 25.5H25V26.5H24V25.5ZM27 25.5H29V26.5H27V25.5ZM31 25.5H32V26.5H31V25.5Z" fill="#595D66"/>
</svg>
