<svg width="24" height="24" viewBox="0 0 24 24" fill="none" xmlns="http://www.w3.org/2000/svg">
<path d="M0.5 2.66667C0.5 1.47005 1.47005 0.5 2.66667 0.5H21.3333C22.53 0.5 23.5 1.47005 23.5 2.66667V21.3333C23.5 22.53 22.53 23.5 21.3333 23.5H2.66667C1.47005 23.5 0.5 22.53 0.5 21.3333V2.66667Z" stroke="#BEC9D4"/>
<path d="M10.6556 10.9202C10.5396 10.7802 10.4036 10.6742 10.2476 10.6022C10.0916 10.5302 9.90559 10.4942 9.68959 10.4942C8.91759 10.4942 8.53159 11.0322 8.53159 12.1082C8.53159 13.0722 8.91559 13.5542 9.68359 13.5542C9.91559 13.5542 10.1336 13.5262 10.3376 13.4702C10.5456 13.4142 10.7396 13.3482 10.9196 13.2722L11.1176 13.9442C11.0256 13.9962 10.9216 14.0442 10.8056 14.0882C10.6896 14.1322 10.5656 14.1702 10.4336 14.2022C10.3056 14.2302 10.1716 14.2522 10.0316 14.2682C9.89559 14.2842 9.76159 14.2922 9.62959 14.2922C8.91759 14.2922 8.40559 14.0982 8.09359 13.7102C7.78559 13.3182 7.63159 12.7642 7.63159 12.0482C7.63159 11.3002 7.80759 10.7402 8.15959 10.3682C8.51159 9.9922 9.01159 9.8042 9.65959 9.8042C9.79559 9.8042 9.93359 9.8162 10.0736 9.8402C10.2136 9.8642 10.3496 9.9022 10.4816 9.9542C10.6136 10.0022 10.7376 10.0642 10.8536 10.1402C10.9736 10.2162 11.0796 10.3082 11.1716 10.4162L10.6556 10.9202Z" fill="#56606B"/>
<path d="M11.879 9.8702H13.583C14.079 9.8702 14.459 9.9702 14.723 10.1702C14.991 10.3702 15.125 10.6942 15.125 11.1422C15.125 11.4422 15.063 11.6882 14.939 11.8802C14.819 12.0682 14.651 12.2142 14.435 12.3182C14.419 12.3262 14.403 12.3342 14.387 12.3422C14.371 12.3502 14.353 12.3582 14.333 12.3662L15.263 14.2202H14.321L13.475 12.5042H12.743V14.2202H11.879V9.8702ZM12.743 10.5602V11.8322H13.547C13.631 11.8322 13.713 11.8222 13.793 11.8022C13.877 11.7782 13.951 11.7402 14.015 11.6882C14.079 11.6322 14.131 11.5602 14.171 11.4722C14.211 11.3842 14.231 11.2742 14.231 11.1422C14.231 11.0302 14.209 10.9362 14.165 10.8602C14.125 10.7842 14.071 10.7242 14.003 10.6802C13.939 10.6362 13.865 10.6062 13.781 10.5902C13.701 10.5702 13.623 10.5602 13.547 10.5602H12.743Z" fill="#56606B"/>
<path d="M15.8823 9.8702H17.4243L18.2343 13.5482H18.2823L19.0623 9.8702H20.5623V14.2202H19.6923V10.5422H19.6323L18.8043 14.2202H17.6523L16.8123 10.5422H16.7583V14.2202H15.8823V9.8702Z" fill="#56606B"/>
<path d="M3.40796 9.87012H4.27796V12.5521C4.27796 12.8841 4.33796 13.1461 4.45796 13.3381C4.58196 13.5261 4.78596 13.6201 5.06996 13.6201C5.23796 13.6201 5.37996 13.6001 5.49596 13.5601C5.61196 13.5161 5.70596 13.4481 5.77796 13.3561C5.85396 13.2601 5.90796 13.1381 5.93996 12.9901C5.97196 12.8381 5.98796 12.6541 5.98796 12.4381V9.87012H6.85796V12.4921C6.85796 12.8081 6.81796 13.0801 6.73796 13.3081C6.66196 13.5321 6.54796 13.7181 6.39596 13.8661C6.24396 14.0101 6.05596 14.1181 5.83196 14.1901C5.61196 14.2581 5.35996 14.2921 5.07596 14.2921C4.51596 14.2921 4.09796 14.1481 3.82196 13.8601C3.54596 13.5721 3.40796 13.1001 3.40796 12.4441V9.87012Z" fill="#F92465"/>
</svg>
