<svg width="24" height="24" viewBox="0 0 24 24" fill="none" xmlns="http://www.w3.org/2000/svg">
<path d="M16.799 18.0001V16.8572C16.799 16.251 16.5507 15.6697 16.1086 15.241C15.6666 14.8123 15.067 14.5715 14.4419 14.5715H9.72761C9.10246 14.5715 8.50291 14.8123 8.06086 15.241C7.61881 15.6697 7.37047 16.251 7.37047 16.8572V18.0001M3.94189 8.87153L12.0848 2.57153L20.2276 8.87153V18.7715C20.2276 19.2489 20.037 19.7068 19.6976 20.0443C19.3583 20.3819 18.898 20.5715 18.4181 20.5715H5.75142C5.2715 20.5715 4.81124 20.3819 4.47189 20.0443C4.13254 19.7068 3.94189 19.2489 3.94189 18.7715V8.87153ZM14.4419 10.0001C14.4419 11.2625 13.3866 12.2858 12.0848 12.2858C10.7829 12.2858 9.72761 11.2625 9.72761 10.0001C9.72761 8.73774 10.7829 7.71439 12.0848 7.71439C13.3866 7.71439 14.4419 8.73774 14.4419 10.0001Z" stroke="#56606B" stroke-linecap="round" stroke-linejoin="round"/>
</svg>
