<svg width="22" height="30" viewBox="0 0 22 30" fill="none" xmlns="http://www.w3.org/2000/svg">
<path d="M21.3536 4.35355C21.5488 4.15829 21.5488 3.84171 21.3536 3.64645L18.1716 0.464466C17.9763 0.269204 17.6597 0.269204 17.4645 0.464466C17.2692 0.659728 17.2692 0.976311 17.4645 1.17157L20.2929 4L17.4645 6.82843C17.2692 7.02369 17.2692 7.34027 17.4645 7.53553C17.6597 7.7308 17.9763 7.7308 18.1716 7.53553L21.3536 4.35355ZM0 29.5H0.625V28.5H0V29.5ZM1.875 29.5H2.5V28.5H1.875V29.5ZM2.5 29.5C2.87582 29.5 3.24618 29.4756 3.60955 29.4282L3.4802 28.4366C3.15961 28.4784 2.83245 28.5 2.5 28.5V29.5ZM5.75383 28.8548C6.44513 28.5681 7.09019 28.193 7.67494 27.7437L7.06561 26.9507C6.54936 27.3475 5.98024 27.6784 5.37078 27.9311L5.75383 28.8548ZM9.24366 26.1749C9.69301 25.5902 10.0681 24.9451 10.3548 24.2538L9.43109 23.8708C9.17836 24.4802 8.84745 25.0494 8.45074 25.5656L9.24366 26.1749ZM10.9282 22.1095C10.9756 21.7462 11 21.3758 11 21H10C10 21.3325 9.9784 21.6596 9.93658 21.9802L10.9282 22.1095ZM11 21V19.875H10V21H11ZM11 17.625V15.375H10V17.625H11ZM11 13.125V12H10V13.125H11ZM11 12C11 11.6675 11.0216 11.3404 11.0634 11.0198L10.0718 10.8905C10.0244 11.2538 10 11.6242 10 12H11ZM11.5689 9.12922C11.8216 8.51976 12.1525 7.95064 12.5493 7.43439L11.7563 6.82506C11.307 7.40981 10.9319 8.05487 10.6452 8.74617L11.5689 9.12922ZM13.9344 6.04926C14.4506 5.65255 15.0198 5.32164 15.6292 5.06891L15.2462 4.14518C14.5549 4.43185 13.9098 4.80699 13.3251 5.25634L13.9344 6.04926ZM17.5198 4.56342C17.8404 4.5216 18.1675 4.5 18.5 4.5V3.5C18.1242 3.5 17.7538 3.52442 17.3905 3.57182L17.5198 4.56342ZM18.5 4.5H19.125V3.5H18.5V4.5ZM20.375 4.5H21V3.5H20.375V4.5Z" fill="#595D66"/>
</svg>
