<svg width="24" height="24" viewBox="0 0 24 24" fill="none" xmlns="http://www.w3.org/2000/svg">
<mask id="path-1-inside-1_1234_61040" fill="white">
<path d="M6.38573 6.09425L3.42859 12V17.1428C3.42859 17.5975 3.6092 18.0335 3.93069 18.355C4.25218 18.6765 4.68822 18.8571 5.14287 18.8571H18.8572C19.3118 18.8571 19.7479 18.6765 20.0693 18.355C20.3908 18.0335 20.5714 17.5975 20.5714 17.1428V12L17.6143 6.09425C17.4724 5.80864 17.2536 5.56828 16.9826 5.4002C16.7115 5.23213 16.3989 5.14299 16.08 5.14282H7.92002C7.60109 5.14299 7.28853 5.23213 7.01748 5.4002C6.74644 5.56828 6.52765 5.80864 6.38573 6.09425Z"/>
</mask>
<path d="M20.5714 12.5C20.8476 12.5 21.0714 12.2761 21.0714 12C21.0714 11.7238 20.8476 11.5 20.5714 11.5V12.5ZM3.42859 11.5C3.15245 11.5 2.92859 11.7238 2.92859 12C2.92859 12.2761 3.15245 12.5 3.42859 12.5V11.5ZM20.5714 11.5H3.42859V12.5H20.5714V11.5ZM20.5714 12H21.5714C21.5714 11.8445 21.5352 11.6912 21.4656 11.5522L20.5714 12ZM3.42859 12L2.53442 11.5522C2.46483 11.6912 2.42859 11.8445 2.42859 12H3.42859ZM6.38573 6.09425L7.2799 6.54199L7.28126 6.53925L6.38573 6.09425ZM3.42859 17.1428H2.42859H3.42859ZM17.6143 6.09425L16.7188 6.53925L16.7201 6.54198L17.6143 6.09425ZM16.08 5.14282L16.0805 4.14282H16.08V5.14282ZM7.92002 5.14282V4.14282L7.91949 4.14282L7.92002 5.14282ZM5.49156 5.64652L2.53442 11.5522L4.32276 12.4477L7.2799 6.54198L5.49156 5.64652ZM2.42859 12V17.1428H4.42859V12H2.42859ZM2.42859 17.1428C2.42859 17.8627 2.71456 18.5531 3.22358 19.0621L4.6378 17.6479C4.50384 17.5139 4.42859 17.3323 4.42859 17.1428H2.42859ZM3.22358 19.0621C3.73261 19.5711 4.423 19.8571 5.14287 19.8571V17.8571C4.95343 17.8571 4.77175 17.7819 4.6378 17.6479L3.22358 19.0621ZM5.14287 19.8571H18.8572V17.8571H5.14287V19.8571ZM18.8572 19.8571C19.577 19.8571 20.2674 19.5711 20.7764 19.0621L19.3622 17.6479C19.2283 17.7819 19.0466 17.8571 18.8572 17.8571V19.8571ZM20.7764 19.0621C21.2855 18.5531 21.5714 17.8627 21.5714 17.1428H19.5714C19.5714 17.3323 19.4962 17.5139 19.3622 17.6479L20.7764 19.0621ZM21.5714 17.1428V12H19.5714V17.1428H21.5714ZM21.4656 11.5522L18.5085 5.64652L16.7201 6.54198L19.6773 12.4477L21.4656 11.5522ZM18.5098 5.64925C18.2851 5.19704 17.9387 4.81647 17.5096 4.55034L16.4555 6.25006C16.5685 6.3201 16.6596 6.42024 16.7188 6.53925L18.5098 5.64925ZM17.5096 4.55034C17.0804 4.28422 16.5855 4.14309 16.0805 4.14282L16.0795 6.14282C16.2124 6.14289 16.3426 6.18003 16.4555 6.25006L17.5096 4.55034ZM16.08 4.14282H7.92002V6.14282H16.08V4.14282ZM7.91949 4.14282C7.41451 4.14309 6.91963 4.28422 6.49048 4.55034L7.54449 6.25006C7.65743 6.18003 7.78766 6.14289 7.92055 6.14282L7.91949 4.14282ZM6.49048 4.55034C6.06132 4.81647 5.71491 5.19703 5.4902 5.64925L7.28126 6.53925C7.3404 6.42025 7.43156 6.3201 7.54449 6.25006L6.49048 4.55034Z" fill="#8642A6" mask="url(#path-1-inside-1_1234_61040)"/>
<path d="M7.38433 15.0799C7.38433 15.5533 7.00057 15.9371 6.52719 15.9371C6.0538 15.9371 5.67004 15.5533 5.67004 15.0799C5.67004 14.6065 6.0538 14.2228 6.52719 14.2228C7.00057 14.2228 7.38433 14.6065 7.38433 15.0799Z" fill="#8642A6"/>
<path d="M9.95574 15.0799C9.95574 15.5533 9.57198 15.9371 9.0986 15.9371C8.62521 15.9371 8.24146 15.5533 8.24146 15.0799C8.24146 14.6065 8.62521 14.2228 9.0986 14.2228C9.57198 14.2228 9.95574 14.6065 9.95574 15.0799Z" fill="#555555"/>
</svg>
