<svg width="22" height="30" viewBox="0 0 22 30" fill="none" xmlns="http://www.w3.org/2000/svg">
<path d="M21.3536 25.6464C21.5488 25.8417 21.5488 26.1583 21.3536 26.3536L18.1716 29.5355C17.9763 29.7308 17.6597 29.7308 17.4645 29.5355C17.2692 29.3403 17.2692 29.0237 17.4645 28.8284L20.2929 26L17.4645 23.1716C17.2692 22.9763 17.2692 22.6597 17.4645 22.4645C17.6597 22.2692 17.9763 22.2692 18.1716 22.4645L21.3536 25.6464ZM0 0.5H0.625V1.5H0V0.5ZM1.875 0.5H2.5V1.5H1.875V0.5ZM2.5 0.5C2.87582 0.5 3.24618 0.524422 3.60955 0.571819L3.4802 1.56342C3.15961 1.5216 2.83245 1.5 2.5 1.5V0.5ZM5.75383 1.14518C6.44513 1.43185 7.09019 1.80699 7.67494 2.25635L7.06561 3.04926C6.54936 2.65255 5.98024 2.32164 5.37078 2.06891L5.75383 1.14518ZM9.24366 3.82506C9.69301 4.40981 10.0681 5.05487 10.3548 5.74617L9.43109 6.12922C9.17836 5.51977 8.84745 4.95064 8.45074 4.43439L9.24366 3.82506ZM10.9282 7.89045C10.9756 8.25382 11 8.62418 11 9H10C10 8.66755 9.9784 8.34039 9.93658 8.0198L10.9282 7.89045ZM11 9V10.125H10V9H11ZM11 12.375V14.625H10V12.375H11ZM11 16.875V18H10V16.875H11ZM11 18C11 18.3325 11.0216 18.6596 11.0634 18.9802L10.0718 19.1095C10.0244 18.7462 10 18.3758 10 18H11ZM11.5689 20.8708C11.8216 21.4802 12.1525 22.0494 12.5493 22.5656L11.7563 23.1749C11.307 22.5902 10.9319 21.9451 10.6452 21.2538L11.5689 20.8708ZM13.9344 23.9507C14.4506 24.3475 15.0198 24.6784 15.6292 24.9311L15.2462 25.8548C14.5549 25.5681 13.9098 25.193 13.3251 24.7437L13.9344 23.9507ZM17.5198 25.4366C17.8404 25.4784 18.1675 25.5 18.5 25.5V26.5C18.1242 26.5 17.7538 26.4756 17.3905 26.4282L17.5198 25.4366ZM18.5 25.5H19.125V26.5H18.5V25.5ZM20.375 25.5H21V26.5H20.375V25.5Z" fill="#BEC9D4"/>
</svg>
