<svg width="18" height="18" viewBox="0 0 18 18" fill="none" xmlns="http://www.w3.org/2000/svg">
<path d="M3.86648 5.76781C3.75935 4.26615 4.58067 3.26505 5.00472 2.9522C5.67427 2.34886 6.27687 2.54997 6.61165 2.9522C6.94642 3.35443 7.74989 4.29297 8.08466 4.76223C8.41944 5.2315 8.41944 5.76781 8.08466 6.17004C7.81684 6.49182 7.34816 6.88511 7.14729 7.04154C7.2812 7.51081 7.72311 8.65046 8.41944 9.45492C9.11578 10.2594 10.2272 11.0415 10.6959 11.332C10.7629 11.265 11.0173 11.037 11.4994 10.6616C12.102 10.1923 12.6376 10.2594 12.9724 10.6616L14.3115 12.2705C14.6463 12.6728 15.2489 13.142 14.1776 14.1476C13.1063 15.1532 11.6333 14.7509 10.562 14.4158C9.49073 14.0806 8.21857 13.075 7.54902 12.4046C6.87947 11.7342 6.076 10.7957 5.27254 9.65603C4.46908 8.51638 4.00039 7.64488 3.86648 5.76781Z" stroke="#8E929E"/>
</svg>
