<svg width="18" height="18" viewBox="0 0 18 18" fill="none" xmlns="http://www.w3.org/2000/svg">
<path d="M3.86672 5.76784C3.75959 4.26618 4.58091 3.26508 5.00496 2.95223C5.67451 2.34889 6.27711 2.55 6.61189 2.95223C6.94667 3.35446 7.75013 4.293 8.08491 4.76227C8.41968 5.23153 8.41968 5.76784 8.08491 6.17007C7.81709 6.49185 7.3484 6.88515 7.14753 7.04157C7.28144 7.51084 7.72335 8.65049 8.41968 9.45495C9.11602 10.2594 10.2275 11.0415 10.6962 11.332C10.7631 11.265 11.0175 11.0371 11.4996 10.6616C12.1022 10.1924 12.6379 10.2594 12.9726 10.6616L14.3118 12.2706C14.6465 12.6728 15.2491 13.1421 14.1778 14.1476C13.1066 15.1532 11.6335 14.751 10.5623 14.4158C9.49097 14.0806 8.21882 13.075 7.54927 12.4046C6.87971 11.7343 6.07625 10.7957 5.27279 9.65606C4.46932 8.51641 4.00063 7.64491 3.86672 5.76784Z" stroke="#8996A3"/>
</svg>
