<svg width="33" height="30" viewBox="0 0 33 30" fill="none" xmlns="http://www.w3.org/2000/svg">
<path d="M32.3536 4.35355C32.5488 4.15829 32.5488 3.84171 32.3536 3.64645L29.1716 0.464466C28.9763 0.269204 28.6597 0.269204 28.4645 0.464466C28.2692 0.659728 28.2692 0.976311 28.4645 1.17157L31.2929 4L28.4645 6.82843C28.2692 7.02369 28.2692 7.34027 28.4645 7.53553C28.6597 7.7308 28.9763 7.7308 29.1716 7.53553L32.3536 4.35355ZM0 29.5H1V28.5H0V29.5ZM3 29.5H5V28.5H3V29.5ZM7 29.5H8V28.5H7V29.5ZM8 29.5C8.37582 29.5 8.74618 29.4756 9.10955 29.4282L8.9802 28.4366C8.65961 28.4784 8.33245 28.5 8 28.5V29.5ZM11.2538 28.8548C11.9451 28.5681 12.5902 28.193 13.1749 27.7437L12.5656 26.9507C12.0494 27.3475 11.4802 27.6784 10.8708 27.9311L11.2538 28.8548ZM14.7437 26.1749C15.193 25.5902 15.5681 24.9451 15.8548 24.2538L14.9311 23.8708C14.6784 24.4802 14.3475 25.0494 13.9507 25.5656L14.7437 26.1749ZM16.4282 22.1095C16.4756 21.7462 16.5 21.3758 16.5 21H15.5C15.5 21.3325 15.4784 21.6596 15.4366 21.9802L16.4282 22.1095ZM16.5 21V19.875H15.5V21H16.5ZM16.5 17.625V15.375H15.5V17.625H16.5ZM16.5 13.125V12H15.5V13.125H16.5ZM16.5 12C16.5 11.6675 16.5216 11.3404 16.5634 11.0198L15.5718 10.8905C15.5244 11.2538 15.5 11.6242 15.5 12H16.5ZM17.0689 9.12922C17.3216 8.51976 17.6525 7.95064 18.0493 7.43439L17.2563 6.82506C16.807 7.40981 16.4319 8.05487 16.1452 8.74617L17.0689 9.12922ZM19.4344 6.04926C19.9506 5.65255 20.5198 5.32164 21.1292 5.06891L20.7462 4.14518C20.0549 4.43185 19.4098 4.80699 18.8251 5.25634L19.4344 6.04926ZM23.0198 4.56342C23.3404 4.5216 23.6675 4.5 24 4.5V3.5C23.6242 3.5 23.2538 3.52442 22.8905 3.57182L23.0198 4.56342ZM24 4.5H25V3.5H24V4.5ZM27 4.5H29V3.5H27V4.5ZM31 4.5H32V3.5H31V4.5Z" fill="#BEC9D4"/>
</svg>
