<svg width="24" height="24" viewBox="0 0 24 24" fill="none" xmlns="http://www.w3.org/2000/svg">
<path d="M3.94189 8.87129L12.0848 2.57129L20.2276 8.87129V18.7713C20.2276 19.2487 20.037 19.7065 19.6976 20.0441C19.3583 20.3816 18.898 20.5713 18.4181 20.5713H5.75142C5.2715 20.5713 4.81124 20.3816 4.47189 20.0441C4.13254 19.7065 3.94189 19.2487 3.94189 18.7713V8.87129Z" stroke="#425FA3" stroke-linecap="round" stroke-linejoin="round"/>
<path d="M12.0842 12.2858C13.386 12.2858 14.4413 11.2624 14.4413 10.0001C14.4413 8.7377 13.386 7.71436 12.0842 7.71436C10.7824 7.71436 9.72705 8.7377 9.72705 10.0001C9.72705 11.2624 10.7824 12.2858 12.0842 12.2858Z" fill="#425FA3"/>
<path d="M17 18V16.6667C17 15.9594 16.7366 15.2811 16.2678 14.7811C15.7989 14.281 15.163 14 14.5 14H9.5C8.83696 14 8.20107 14.281 7.73223 14.7811C7.26339 15.2811 7 15.9594 7 16.6667V18" fill="#425FA3"/>
</svg>
