<svg width="18" height="18" viewBox="0 0 18 18" fill="none" xmlns="http://www.w3.org/2000/svg">
<path d="M3.86648 5.76769C3.75935 4.26603 4.58067 3.26492 5.00472 2.95208C5.67427 2.34873 6.27687 2.54985 6.61165 2.95208C6.94642 3.35431 7.74989 4.29284 8.08466 4.76211C8.41944 5.23138 8.41944 5.76769 8.08466 6.16992C7.81684 6.4917 7.34816 6.88499 7.14729 7.04142C7.2812 7.51068 7.72311 8.65033 8.41944 9.45479C9.11578 10.2593 10.2272 11.0414 10.6959 11.3319C10.7629 11.2648 11.0173 11.0369 11.4994 10.6615C12.102 10.1922 12.6376 10.2593 12.9724 10.6615L14.3115 12.2704C14.6463 12.6726 15.2489 13.1419 14.1776 14.1475C13.1063 15.1531 11.6333 14.7508 10.562 14.4156C9.49073 14.0804 8.21857 13.0749 7.54902 12.4045C6.87947 11.7341 6.076 10.7956 5.27254 9.65591C4.46908 8.51626 4.00039 7.64476 3.86648 5.76769Z" stroke="#F5F6FA"/>
</svg>
