<svg width="26" height="26" viewBox="0 0 26 26" fill="none" xmlns="http://www.w3.org/2000/svg">
<path d="M14.8571 3.71484H7.42855C6.93601 3.71484 6.46364 3.91051 6.11536 4.25879C5.76707 4.60707 5.57141 5.07944 5.57141 5.57199V20.4291C5.57141 20.9217 5.76707 21.394 6.11536 21.7423C6.46364 22.0906 6.93601 22.2863 7.42855 22.2863H18.5714C19.064 22.2863 19.5363 22.0906 19.8846 21.7423C20.2329 21.394 20.4286 20.9217 20.4286 20.4291V9.28627M14.8571 3.71484L20.4286 9.28627M14.8571 3.71484V9.28627H20.4286M16.7143 13.9291H9.2857M16.7143 17.6434H9.2857M11.1428 10.2148H9.2857" stroke="#8996A3" stroke-linecap="round" stroke-linejoin="round"/>
</svg>
