<svg width="24" height="24" viewBox="0 0 24 24" fill="none" xmlns="http://www.w3.org/2000/svg">
<path d="M12 8.50854L12 6.50855M17.4857 18.5085L6.51432 18.5085C5.7569 18.5085 5.14289 17.869 5.14289 17.08L5.14289 9.93712C5.14289 9.14814 5.7569 8.50854 6.51432 8.50854L17.4857 8.50854C18.2432 8.50854 18.8572 9.14814 18.8572 9.93712L18.8572 17.08C18.8572 17.869 18.2432 18.5085 17.4857 18.5085Z" stroke="#8642A6" stroke-linecap="round" stroke-linejoin="round"/>
<path d="M13.2143 4.79412C13.2143 5.46475 12.6707 6.00841 12.0001 6.00841C11.3294 6.00841 10.7858 5.46475 10.7858 4.79412C10.7858 4.12349 11.3294 3.57983 12.0001 3.57983C12.6707 3.57983 13.2143 4.12349 13.2143 4.79412Z" stroke="#555555"/>
<line x1="9.92859" y1="15.437" x2="14.0714" y2="15.437" stroke="#555555" stroke-linecap="round"/>
<line x1="3.07141" y1="12.1514" x2="3.07141" y2="14.5799" stroke="#555555" stroke-linecap="round"/>
<line x1="21.0714" y1="12.1514" x2="21.0714" y2="14.5799" stroke="#555555" stroke-linecap="round"/>
<path d="M9.42852 12.5085C9.42852 12.9819 9.04476 13.3657 8.57138 13.3657C8.09799 13.3657 7.71423 12.9819 7.71423 12.5085C7.71423 12.0351 8.09799 11.6514 8.57138 11.6514C9.04476 11.6514 9.42852 12.0351 9.42852 12.5085Z" fill="#8642A6"/>
<path d="M16.2857 12.5085C16.2857 12.9819 15.9019 13.3657 15.4286 13.3657C14.9552 13.3657 14.5714 12.9819 14.5714 12.5085C14.5714 12.0351 14.9552 11.6514 15.4286 11.6514C15.9019 11.6514 16.2857 12.0351 16.2857 12.5085Z" fill="#555555"/>
</svg>
