<svg width="26" height="26" viewBox="0 0 26 26" fill="none" xmlns="http://www.w3.org/2000/svg">
<path d="M4.64288 7.42815H6.50003M6.50003 7.42815H21.3572M6.50003 7.42815V20.4282C6.50003 20.9207 6.69569 21.3931 7.04397 21.7414C7.39225 22.0896 7.86462 22.2853 8.35717 22.2853H17.6429C18.1354 22.2853 18.6078 22.0896 18.9561 21.7414C19.3044 21.3931 19.5 20.9207 19.5 20.4282V7.42815H6.50003ZM9.28574 7.42815V5.57101C9.28574 5.07847 9.4814 4.60609 9.82969 4.25781C10.178 3.90953 10.6503 3.71387 11.1429 3.71387H14.8572C15.3497 3.71387 15.8221 3.90953 16.1704 4.25781C16.5186 4.60609 16.7143 5.07847 16.7143 5.57101V7.42815M11.1429 12.071V17.6424M14.8572 12.071V17.6424" stroke="#7B558D" stroke-linecap="round" stroke-linejoin="round"/>
</svg>
