<svg width="18" height="18" viewBox="0 0 18 18" fill="none" xmlns="http://www.w3.org/2000/svg">
<mask id="path-1-inside-1_1226_55856" fill="white">
<path d="M4.78927 4.57072L2.57141 9V12.8571C2.57141 13.1981 2.70687 13.5252 2.94799 13.7663C3.18911 14.0074 3.51613 14.1429 3.85713 14.1429H14.1428C14.4838 14.1429 14.8109 14.0074 15.052 13.7663C15.2931 13.5252 15.4286 13.1981 15.4286 12.8571V9L13.2107 4.57072C13.1043 4.35651 12.9402 4.17624 12.7369 4.05018C12.5336 3.92413 12.2992 3.85727 12.06 3.85715H5.93998C5.70079 3.85727 5.46637 3.92413 5.26308 4.05018C5.0598 4.17624 4.89571 4.35651 4.78927 4.57072Z"/>
</mask>
<path d="M15.4286 9.5C15.7047 9.5 15.9286 9.27615 15.9286 9C15.9286 8.72386 15.7047 8.5 15.4286 8.5V9.5ZM2.57141 8.5C2.29527 8.5 2.07141 8.72386 2.07141 9C2.07141 9.27615 2.29527 9.5 2.57141 9.5V8.5ZM15.4286 8.5H2.57141V9.5H15.4286V8.5ZM15.4286 9H16.4286C16.4286 8.84456 16.3923 8.69126 16.3227 8.55227L15.4286 9ZM2.57141 9L1.67724 8.55227C1.60765 8.69126 1.57141 8.84456 1.57141 9H2.57141ZM4.78927 4.57072L5.68344 5.01845L5.6848 5.01572L4.78927 4.57072ZM2.57141 12.8571H1.57141H2.57141ZM13.2107 4.57072L12.3152 5.01572L12.3165 5.01845L13.2107 4.57072ZM12.06 3.85715L12.0605 2.85715H12.06V3.85715ZM5.93998 3.85715V2.85715L5.93945 2.85715L5.93998 3.85715ZM3.8951 4.12299L1.67724 8.55227L3.46558 9.44774L5.68344 5.01845L3.8951 4.12299ZM1.57141 9V12.8571H3.57141V9H1.57141ZM1.57141 12.8571C1.57141 13.4634 1.81223 14.0447 2.24088 14.4734L3.65509 13.0592C3.60151 13.0056 3.57141 12.9329 3.57141 12.8571H1.57141ZM2.24088 14.4734C2.66954 14.902 3.25092 15.1429 3.85713 15.1429V13.1429C3.78135 13.1429 3.70868 13.1128 3.65509 13.0592L2.24088 14.4734ZM3.85713 15.1429H14.1428V13.1429H3.85713V15.1429ZM14.1428 15.1429C14.7491 15.1429 15.3304 14.902 15.7591 14.4734L14.3449 13.0592C14.2913 13.1128 14.2186 13.1429 14.1428 13.1429V15.1429ZM15.7591 14.4734C16.1877 14.0447 16.4286 13.4634 16.4286 12.8571H14.4286C14.4286 12.9329 14.3985 13.0056 14.3449 13.0592L15.7591 14.4734ZM16.4286 12.8571V9H14.4286V12.8571H16.4286ZM16.3227 8.55227L14.1049 4.12299L12.3165 5.01845L14.5344 9.44774L16.3227 8.55227ZM14.1062 4.12572C13.917 3.74491 13.6253 3.42443 13.2639 3.20032L12.2099 4.90004C12.255 4.92806 12.2915 4.96812 12.3152 5.01572L14.1062 4.12572ZM13.2639 3.20032C12.9025 2.97622 12.4858 2.85737 12.0605 2.85715L12.0595 4.85715C12.1126 4.85718 12.1647 4.87203 12.2099 4.90004L13.2639 3.20032ZM12.06 2.85715H5.93998V4.85715H12.06V2.85715ZM5.93945 2.85715C5.51421 2.85737 5.09747 2.97622 4.73607 3.20032L5.79009 4.90004C5.83527 4.87203 5.88736 4.85718 5.94051 4.85715L5.93945 2.85715ZM4.73607 3.20032C4.37468 3.42443 4.08297 3.7449 3.89374 4.12572L5.6848 5.01572C5.70845 4.96812 5.74492 4.92806 5.79009 4.90004L4.73607 3.20032Z" fill="#8996A3" mask="url(#path-1-inside-1_1226_55856)"/>
<path d="M5.53816 11.3099C5.53816 11.665 5.25034 11.9528 4.8953 11.9528C4.54026 11.9528 4.25244 11.665 4.25244 11.3099C4.25244 10.9549 4.54026 10.6671 4.8953 10.6671C5.25034 10.6671 5.53816 10.9549 5.53816 11.3099Z" fill="#555555"/>
<path d="M7.46674 11.3099C7.46674 11.665 7.17893 11.9528 6.82389 11.9528C6.46885 11.9528 6.18103 11.665 6.18103 11.3099C6.18103 10.9549 6.46885 10.6671 6.82389 10.6671C7.17893 10.6671 7.46674 10.9549 7.46674 11.3099Z" fill="#555555"/>
</svg>
