<svg width="18" height="18" viewBox="0 0 18 18" fill="none" xmlns="http://www.w3.org/2000/svg">
<mask id="path-1-inside-1_614_8407" fill="white">
<path d="M12.2143 2.57129H5.78571C5.07563 2.57129 4.5 3.14692 4.5 3.857V14.1427C4.5 14.8528 5.07563 15.4284 5.78571 15.4284H12.2143C12.9244 15.4284 13.5 14.8528 13.5 14.1427V3.857C13.5 3.14692 12.9244 2.57129 12.2143 2.57129Z"/>
</mask>
<path d="M5.78571 3.57129H12.2143V1.57129H5.78571V3.57129ZM12.2143 3.57129C12.3721 3.57129 12.5 3.69921 12.5 3.857H14.5C14.5 2.59464 13.4767 1.57129 12.2143 1.57129V3.57129ZM12.5 3.857V14.1427H14.5V3.857H12.5ZM12.5 14.1427C12.5 14.3005 12.3721 14.4284 12.2143 14.4284V16.4284C13.4767 16.4284 14.5 15.4051 14.5 14.1427H12.5ZM12.2143 14.4284H5.78571V16.4284H12.2143V14.4284ZM5.78571 14.4284C5.62792 14.4284 5.5 14.3005 5.5 14.1427H3.5C3.5 15.4051 4.52335 16.4284 5.78571 16.4284V14.4284ZM5.5 14.1427V3.857H3.5V14.1427H5.5ZM5.5 3.857C5.5 3.69921 5.62792 3.57129 5.78571 3.57129V1.57129C4.52335 1.57129 3.5 2.59464 3.5 3.857H5.5Z" fill="#F5F6FA" mask="url(#path-1-inside-1_614_8407)"/>
<path d="M9.64265 12.8572C9.64265 13.2123 9.35483 13.5001 8.99979 13.5001C8.64475 13.5001 8.35693 13.2123 8.35693 12.8572C8.35693 12.5022 8.64475 12.2144 8.99979 12.2144C9.35483 12.2144 9.64265 12.5022 9.64265 12.8572Z" fill="#F5F6FA"/>
</svg>
