<svg width="18" height="18" viewBox="0 0 18 18" fill="none" xmlns="http://www.w3.org/2000/svg">
<mask id="path-1-inside-1_614_6816" fill="white">
<path d="M4.78915 4.57075L2.57129 9.00003V12.8572C2.57129 13.1982 2.70675 13.5252 2.94787 13.7663C3.18898 14.0074 3.51601 14.1429 3.857 14.1429H14.1427C14.4837 14.1429 14.8107 14.0074 15.0519 13.7663C15.293 13.5252 15.4284 13.1982 15.4284 12.8572V9.00003L13.2106 4.57075C13.1041 4.35654 12.94 4.17627 12.7368 4.05021C12.5335 3.92416 12.2991 3.8573 12.0599 3.85718H5.93986C5.70066 3.8573 5.46624 3.92416 5.26296 4.05021C5.05968 4.17627 4.89559 4.35654 4.78915 4.57075Z"/>
</mask>
<path d="M15.4284 9.50003C15.7046 9.50003 15.9284 9.27618 15.9284 9.00003C15.9284 8.72389 15.7046 8.50003 15.4284 8.50003V9.50003ZM2.57129 8.50003C2.29515 8.50003 2.07129 8.72389 2.07129 9.00003C2.07129 9.27618 2.29515 9.50003 2.57129 9.50003V8.50003ZM15.4284 8.50003H2.57129V9.50003H15.4284V8.50003ZM15.4284 9.00003H16.4284C16.4284 8.84459 16.3922 8.69129 16.3226 8.5523L15.4284 9.00003ZM2.57129 9.00003L1.67712 8.5523C1.60753 8.69129 1.57129 8.84459 1.57129 9.00003H2.57129ZM4.78915 4.57075L5.68332 5.01848L5.68468 5.01575L4.78915 4.57075ZM2.57129 12.8572H1.57129H2.57129ZM13.2106 4.57075L12.315 5.01575L12.3164 5.01848L13.2106 4.57075ZM12.0599 3.85718L12.0604 2.85718H12.0599V3.85718ZM5.93986 3.85718V2.85718L5.93933 2.85718L5.93986 3.85718ZM3.89498 4.12302L1.67712 8.5523L3.46546 9.44777L5.68331 5.01848L3.89498 4.12302ZM1.57129 9.00003V12.8572H3.57129V9.00003H1.57129ZM1.57129 12.8572C1.57129 13.4634 1.8121 14.0448 2.24076 14.4734L3.65497 13.0592C3.60139 13.0056 3.57129 12.933 3.57129 12.8572H1.57129ZM2.24076 14.4734C2.66941 14.9021 3.25079 15.1429 3.857 15.1429V13.1429C3.78123 13.1429 3.70855 13.1128 3.65497 13.0592L2.24076 14.4734ZM3.857 15.1429H14.1427V13.1429H3.857V15.1429ZM14.1427 15.1429C14.7489 15.1429 15.3303 14.9021 15.759 14.4734L14.3447 13.0592C14.2912 13.1128 14.2185 13.1429 14.1427 13.1429V15.1429ZM15.759 14.4734C16.1876 14.0448 16.4284 13.4634 16.4284 12.8572H14.4284C14.4284 12.933 14.3983 13.0056 14.3447 13.0592L15.759 14.4734ZM16.4284 12.8572V9.00003H14.4284V12.8572H16.4284ZM16.3226 8.5523L14.1047 4.12302L12.3164 5.01848L14.5343 9.44777L16.3226 8.5523ZM14.1061 4.12575C13.9169 3.74494 13.6252 3.42446 13.2638 3.20035L12.2098 4.90007C12.2549 4.92809 12.2914 4.96815 12.315 5.01575L14.1061 4.12575ZM13.2638 3.20035C12.9024 2.97625 12.4856 2.8574 12.0604 2.85718L12.0593 4.85718C12.1125 4.85721 12.1646 4.87206 12.2098 4.90007L13.2638 3.20035ZM12.0599 2.85718H5.93986V4.85718H12.0599V2.85718ZM5.93933 2.85718C5.51409 2.8574 5.09735 2.97625 4.73595 3.20035L5.78997 4.90007C5.83514 4.87206 5.88724 4.85721 5.94039 4.85718L5.93933 2.85718ZM4.73595 3.20035C4.37456 3.42446 4.08285 3.74493 3.89362 4.12575L5.68468 5.01575C5.70833 4.96815 5.74479 4.92809 5.78997 4.90007L4.73595 3.20035Z" fill="#F5F6FA" mask="url(#path-1-inside-1_614_6816)"/>
<path d="M5.53816 11.31C5.53816 11.665 5.25034 11.9528 4.8953 11.9528C4.54026 11.9528 4.25244 11.665 4.25244 11.31C4.25244 10.9549 4.54026 10.6671 4.8953 10.6671C5.25034 10.6671 5.53816 10.9549 5.53816 11.31Z" fill="#F5F6FA"/>
<path d="M7.46687 11.31C7.46687 11.665 7.17905 11.9528 6.82401 11.9528C6.46897 11.9528 6.18115 11.665 6.18115 11.31C6.18115 10.9549 6.46897 10.6671 6.82401 10.6671C7.17905 10.6671 7.46687 10.9549 7.46687 11.31Z" fill="#F5F6FA"/>
</svg>
