<svg width="26" height="26" viewBox="0 0 26 26" fill="none" xmlns="http://www.w3.org/2000/svg">
<path d="M14.8571 3.71436H7.42855C6.93601 3.71436 6.46364 3.91002 6.11536 4.2583C5.76707 4.60658 5.57141 5.07895 5.57141 5.5715V20.4286C5.57141 20.9212 5.76707 21.3936 6.11536 21.7418C6.46364 22.0901 6.93601 22.2858 7.42855 22.2858H18.5714C19.064 22.2858 19.5363 22.0901 19.8846 21.7418C20.2329 21.3936 20.4286 20.9212 20.4286 20.4286V9.28578M14.8571 3.71436L20.4286 9.28578M14.8571 3.71436V9.28578H20.4286M16.7143 13.9286H9.2857M16.7143 17.6429H9.2857M11.1428 10.2144H9.2857" stroke="#C2C5CE" stroke-linecap="round" stroke-linejoin="round"/>
</svg>
