<svg width="24" height="24" viewBox="0 0 24 24" fill="none" xmlns="http://www.w3.org/2000/svg">
<mask id="path-1-inside-1_1234_61002" fill="white">
<path d="M16.2857 3.42859H7.71429C6.76751 3.42859 6 4.1961 6 5.14287V18.8572C6 19.8039 6.76751 20.5714 7.71429 20.5714H16.2857C17.2325 20.5714 18 19.8039 18 18.8572V5.14287C18 4.1961 17.2325 3.42859 16.2857 3.42859Z"/>
</mask>
<path d="M7.71429 4.42859H16.2857V2.42859H7.71429V4.42859ZM16.2857 4.42859C16.6802 4.42859 17 4.74839 17 5.14287H19C19 3.64382 17.7848 2.42859 16.2857 2.42859V4.42859ZM17 5.14287V18.8572H19V5.14287H17ZM17 18.8572C17 19.2516 16.6802 19.5714 16.2857 19.5714V21.5714C17.7848 21.5714 19 20.3562 19 18.8572H17ZM16.2857 19.5714H7.71429V21.5714H16.2857V19.5714ZM7.71429 19.5714C7.3198 19.5714 7 19.2516 7 18.8572H5C5 20.3562 6.21523 21.5714 7.71429 21.5714V19.5714ZM7 18.8572V5.14287H5V18.8572H7ZM7 5.14287C7 4.74839 7.3198 4.42859 7.71429 4.42859V2.42859C6.21523 2.42859 5 3.64382 5 5.14287H7Z" fill="#8642A6" mask="url(#path-1-inside-1_1234_61002)"/>
<path d="M12.8571 17.1429C12.8571 17.6163 12.4734 18.0001 12 18.0001C11.5266 18.0001 11.1428 17.6163 11.1428 17.1429C11.1428 16.6695 11.5266 16.2858 12 16.2858C12.4734 16.2858 12.8571 16.6695 12.8571 17.1429Z" fill="#8642A6"/>
</svg>
