<svg width="33" height="30" viewBox="0 0 33 30" fill="none" xmlns="http://www.w3.org/2000/svg">
<path d="M32.3536 4.35355C32.5488 4.15829 32.5488 3.84171 32.3536 3.64645L29.1716 0.464466C28.9763 0.269204 28.6597 0.269204 28.4645 0.464466C28.2692 0.659728 28.2692 0.976311 28.4645 1.17157L31.2929 4L28.4645 6.82843C28.2692 7.02369 28.2692 7.34027 28.4645 7.53553C28.6597 7.7308 28.9763 7.7308 29.1716 7.53553L32.3536 4.35355ZM0 29.5H8V28.5H0V29.5ZM16.5 21V12H15.5V21H16.5ZM24 4.5H32V3.5H24V4.5ZM16.5 12C16.5 7.85786 19.8579 4.5 24 4.5V3.5C19.3056 3.5 15.5 7.30558 15.5 12H16.5ZM8 29.5C12.6944 29.5 16.5 25.6944 16.5 21H15.5C15.5 25.1421 12.1421 28.5 8 28.5V29.5Z" fill="#6B7682"/>
</svg>
