<svg width="24" height="24" viewBox="0 0 24 24" fill="none" xmlns="http://www.w3.org/2000/svg">
<mask id="mask0_2_2" style="mask-type:alpha" maskUnits="userSpaceOnUse" x="3" y="5" width="18" height="14">
<path d="M6.38561 6.09431L3.42847 12V17.1429C3.42847 17.5975 3.60908 18.0336 3.93057 18.3551C4.25206 18.6766 4.6881 18.8572 5.14275 18.8572H18.857C19.3117 18.8572 19.7477 18.6766 20.0692 18.3551C20.3907 18.0336 20.5713 17.5975 20.5713 17.1429V12L17.6142 6.09431C17.4723 5.8087 17.2535 5.56834 16.9824 5.40027C16.7114 5.23219 16.3988 5.14305 16.0799 5.14288H7.91989C7.60097 5.14305 7.28841 5.23219 7.01736 5.40027C6.74632 5.56834 6.52753 5.8087 6.38561 6.09431Z" fill="#F5F6FA"/>
</mask>
<g mask="url(#mask0_2_2)">
<path d="M20.5713 12.5C20.8475 12.5 21.0713 12.2762 21.0713 12C21.0713 11.7239 20.8475 11.5 20.5713 11.5V12.5ZM3.42847 11.5C3.15232 11.5 2.92847 11.7239 2.92847 12C2.92847 12.2762 3.15232 12.5 3.42847 12.5V11.5ZM20.5713 11.5H3.42847V12.5H20.5713V11.5ZM20.5713 12H21.5713C21.5713 11.8446 21.5351 11.6913 21.4655 11.5523L20.5713 12ZM3.42847 12L2.5343 11.5523C2.4647 11.6913 2.42847 11.8446 2.42847 12H3.42847ZM6.38561 6.09431L7.27978 6.54205L7.28114 6.53931L6.38561 6.09431ZM3.42847 17.1429H2.42847H3.42847ZM17.6142 6.09431L16.7186 6.53931L16.72 6.54204L17.6142 6.09431ZM16.0799 5.14288L16.0804 4.14288H16.0799V5.14288ZM7.91989 5.14288V4.14288H7.91936L7.91989 5.14288ZM5.49144 5.64658L2.5343 11.5523L4.32263 12.4478L7.27978 6.54204L5.49144 5.64658ZM2.42847 12V17.1429H4.42847V12H2.42847ZM2.42847 17.1429C2.42847 17.8628 2.71444 18.5531 3.22346 19.0622L4.63768 17.648C4.50372 17.514 4.42847 17.3323 4.42847 17.1429H2.42847ZM3.22346 19.0622C3.73249 19.5712 4.42288 19.8572 5.14275 19.8572V17.8572C4.95331 17.8572 4.77163 17.7819 4.63768 17.648L3.22346 19.0622ZM5.14275 19.8572H18.857V17.8572H5.14275V19.8572ZM18.857 19.8572C19.5769 19.8572 20.2673 19.5712 20.7763 19.0622L19.3621 17.648C19.2282 17.7819 19.0465 17.8572 18.857 17.8572V19.8572ZM20.7763 19.0622C21.2854 18.5531 21.5713 17.8628 21.5713 17.1429H19.5713C19.5713 17.3323 19.4961 17.514 19.3621 17.648L20.7763 19.0622ZM21.5713 17.1429V12H19.5713V17.1429H21.5713ZM21.4655 11.5523L18.5083 5.64658L16.72 6.54204L19.6772 12.4478L21.4655 11.5523ZM18.5097 5.64931C18.285 5.1971 17.9386 4.81653 17.5094 4.55041L16.4554 6.25013C16.5684 6.32016 16.6595 6.42031 16.7186 6.53931L18.5097 5.64931ZM17.5094 4.55041C17.0803 4.28428 16.5854 4.14315 16.0804 4.14288L16.0794 6.14288C16.2123 6.14295 16.3425 6.18009 16.4554 6.25013L17.5094 4.55041ZM16.0799 4.14288H7.91989V6.14288H16.0799V4.14288ZM7.91936 4.14288C7.41439 4.14315 6.91951 4.28428 6.49035 4.55041L7.54437 6.25013C7.65731 6.18009 7.78754 6.14295 7.92043 6.14288L7.91936 4.14288ZM6.49035 4.55041C6.0612 4.81653 5.71479 5.19709 5.49008 5.64931L7.28114 6.53931C7.34027 6.42031 7.43143 6.32016 7.54437 6.25013L6.49035 4.55041Z" fill="#F5F6FA"/>
<path d="M7.38421 15.0799C7.38421 15.5533 7.00045 15.9371 6.52706 15.9371C6.05368 15.9371 5.66992 15.5533 5.66992 15.0799C5.66992 14.6065 6.05368 14.2228 6.52706 14.2228C7.00045 14.2228 7.38421 14.6065 7.38421 15.0799Z" fill="#F5F6FA"/>
<path d="M9.95574 15.0799C9.95574 15.5533 9.57198 15.9371 9.0986 15.9371C8.62521 15.9371 8.24146 15.5533 8.24146 15.0799C8.24146 14.6065 8.62521 14.2228 9.0986 14.2228C9.57198 14.2228 9.95574 14.6065 9.95574 15.0799Z" fill="#F5F6FA"/>
</g>
</svg>
