<svg width="85" height="37" viewBox="0 0 85 37" fill="none" xmlns="http://www.w3.org/2000/svg">
<path d="M3.64644 36.3536C3.8417 36.5488 4.15829 36.5488 4.35355 36.3536L7.53554 33.1716C7.7308 32.9763 7.7308 32.6597 7.53554 32.4645C7.34027 32.2692 7.02369 32.2692 6.82843 32.4645L4 35.2929L1.17157 32.4645C0.976309 32.2692 0.659728 32.2692 0.464461 32.4645C0.269202 32.6597 0.269202 32.9763 0.464461 33.1716L3.64644 36.3536ZM84 5L83.5 5L84 5ZM76 13L76 12.5L76 13ZM83.5 -1.68121e-08L83.5 5L84.5 5L84.5 1.68121e-08L83.5 -1.68121e-08ZM76 12.5L12 12.5L12 13.5L76 13.5L76 12.5ZM3.5 21L3.5 36L4.5 36L4.5 21L3.5 21ZM12 12.5C7.30558 12.5 3.5 16.3056 3.5 21L4.5 21C4.5 16.8579 7.85786 13.5 12 13.5L12 12.5ZM83.5 5C83.5 9.14214 80.1421 12.5 76 12.5L76 13.5C80.6944 13.5 84.5 9.69442 84.5 5L83.5 5Z" fill="#70747D"/>
</svg>
